<svg xmlns="http://www.w3.org/2000/svg" xmlns:xlink="http://www.w3.org/1999/xlink" width="500" zoomAndPan="magnify" viewBox="0 0 375 374.999991" height="500" preserveAspectRatio="xMidYMid meet" version="1.0"><defs><g/></defs><g fill="#1b3631" fill-opacity="1"><g transform="translate(30.928336, 216.453559)"><g><path d="M 24.40625 -57.40625 L 24.203125 -57.40625 L 12.90625 -49.5 C 12.164062 -49.03125 11.796875 -49.226562 11.796875 -50.09375 L 11.796875 -57.5 C 11.796875 -58.03125 12.03125 -58.5 12.5 -58.90625 L 24.203125 -67.40625 C 24.671875 -67.800781 25.203125 -68 25.796875 -68 L 31.796875 -68 C 32.460938 -68 32.796875 -67.664062 32.796875 -67 L 32.796875 -1 C 32.796875 -0.332031 32.460938 0 31.796875 0 L 25.40625 0 C 24.738281 0 24.40625 -0.332031 24.40625 -1 Z M 24.40625 -57.40625 "/></g></g></g><g fill="#1b3631" fill-opacity="1"><g transform="translate(132.144209, 219.453559)"><g><path d="M 36.40625 -39.265625 C 41.03125 -39.265625 44.625 -40.4375 47.1875 -42.78125 C 49.757812 -45.132812 51.046875 -48.363281 51.046875 -52.46875 C 51.046875 -56.570312 49.757812 -59.796875 47.1875 -62.140625 C 44.625 -64.492188 41.03125 -65.671875 36.40625 -65.671875 L 19.6875 -65.671875 C 19.25 -65.671875 19.03125 -65.453125 19.03125 -65.015625 L 19.03125 -39.9375 C 19.03125 -39.488281 19.25 -39.265625 19.6875 -39.265625 Z M 10.34375 0 C 9.601562 0 9.234375 -0.363281 9.234375 -1.09375 L 9.234375 -73.703125 C 9.234375 -74.429688 9.601562 -74.796875 10.34375 -74.796875 L 36.953125 -74.796875 C 40.546875 -74.796875 43.8125 -74.265625 46.75 -73.203125 C 49.6875 -72.140625 52.179688 -70.632812 54.234375 -68.6875 C 56.285156 -66.75 57.878906 -64.40625 59.015625 -61.65625 C 60.148438 -58.90625 60.71875 -55.84375 60.71875 -52.46875 C 60.71875 -49.09375 60.148438 -46.03125 59.015625 -43.28125 C 57.878906 -40.53125 56.285156 -38.179688 54.234375 -36.234375 C 52.179688 -34.296875 49.6875 -32.796875 46.75 -31.734375 C 43.8125 -30.671875 40.546875 -30.140625 36.953125 -30.140625 L 19.6875 -30.140625 C 19.25 -30.140625 19.03125 -29.921875 19.03125 -29.484375 L 19.03125 -1.09375 C 19.03125 -0.363281 18.664062 0 17.9375 0 Z M 10.34375 0 "/></g></g></g><g fill="#1b3631" fill-opacity="1"><g transform="translate(197.259588, 219.453559)"><g><path d="M 26.296875 -6.703125 C 30.472656 -6.703125 33.734375 -7.597656 36.078125 -9.390625 C 38.421875 -11.191406 39.59375 -13.742188 39.59375 -17.046875 L 39.59375 -22.875 C 39.59375 -23.320312 39.375 -23.546875 38.9375 -23.546875 L 28.375 -23.546875 C 23.757812 -23.546875 20.425781 -22.863281 18.375 -21.5 C 16.320312 -20.144531 15.296875 -17.960938 15.296875 -14.953125 C 15.296875 -12.242188 16.25 -10.191406 18.15625 -8.796875 C 20.0625 -7.398438 22.773438 -6.703125 26.296875 -6.703125 Z M 40.921875 0 C 40.179688 0 39.8125 -0.363281 39.8125 -1.09375 L 39.8125 -5.71875 L 39.703125 -5.71875 C 38.460938 -3.738281 36.554688 -2.085938 33.984375 -0.765625 C 31.421875 0.546875 28.125 1.203125 24.09375 1.203125 C 21.59375 1.203125 19.257812 0.875 17.09375 0.21875 C 14.9375 -0.4375 13.066406 -1.425781 11.484375 -2.75 C 9.910156 -4.070312 8.664062 -5.722656 7.75 -7.703125 C 6.832031 -9.679688 6.375 -11.988281 6.375 -14.625 C 6.375 -20.195312 8.1875 -24.300781 11.8125 -26.9375 C 15.445312 -29.582031 20.492188 -30.90625 26.953125 -30.90625 L 38.9375 -30.90625 C 39.375 -30.90625 39.59375 -31.125 39.59375 -31.5625 L 39.59375 -35.421875 C 39.59375 -39.085938 38.710938 -41.726562 36.953125 -43.34375 C 35.191406 -44.957031 31.859375 -45.765625 26.953125 -45.765625 C 23.941406 -45.765625 21.445312 -45.414062 19.46875 -44.71875 C 17.488281 -44.019531 15.726562 -43.117188 14.1875 -42.015625 C 13.53125 -41.503906 13.019531 -41.539062 12.65625 -42.125 L 9.6875 -47.1875 C 9.382812 -47.769531 9.457031 -48.285156 9.90625 -48.734375 C 11.882812 -50.273438 14.375 -51.519531 17.375 -52.46875 C 20.382812 -53.425781 23.867188 -53.90625 27.828125 -53.90625 C 35.304688 -53.90625 40.625 -52.53125 43.78125 -49.78125 C 46.9375 -47.03125 48.515625 -42.425781 48.515625 -35.96875 L 48.515625 -1.09375 C 48.515625 -0.363281 48.144531 0 47.40625 0 Z M 40.921875 0 "/></g></g></g><g fill="#1b3631" fill-opacity="1"><g transform="translate(254.345541, 219.453559)"><g><path d="M 27.171875 1.203125 C 24.597656 1.203125 22.210938 0.960938 20.015625 0.484375 C 17.816406 0.015625 15.816406 -0.601562 14.015625 -1.375 C 12.222656 -2.144531 10.613281 -2.988281 9.1875 -3.90625 C 7.757812 -4.820312 6.492188 -5.753906 5.390625 -6.703125 C 4.878906 -7.222656 4.878906 -7.738281 5.390625 -8.25 L 9.90625 -13.09375 C 10.414062 -13.601562 10.925781 -13.601562 11.4375 -13.09375 C 13.414062 -11.40625 15.816406 -9.972656 18.640625 -8.796875 C 21.460938 -7.628906 24.488281 -7.046875 27.71875 -7.046875 C 31.601562 -7.046875 34.5 -7.796875 36.40625 -9.296875 C 38.3125 -10.796875 39.265625 -12.71875 39.265625 -15.0625 C 39.265625 -17.125 38.585938 -18.757812 37.234375 -19.96875 C 35.878906 -21.175781 33.148438 -22 29.046875 -22.4375 L 23.4375 -22.984375 C 18.226562 -23.578125 14.300781 -25.117188 11.65625 -27.609375 C 9.019531 -30.097656 7.703125 -33.507812 7.703125 -37.84375 C 7.703125 -42.90625 9.40625 -46.847656 12.8125 -49.671875 C 16.226562 -52.492188 21.050781 -53.90625 27.28125 -53.90625 C 31.164062 -53.90625 34.703125 -53.351562 37.890625 -52.25 C 41.085938 -51.144531 43.785156 -49.75 45.984375 -48.0625 C 46.566406 -47.695312 46.640625 -47.1875 46.203125 -46.53125 L 42.453125 -41.796875 C 42.015625 -41.285156 41.503906 -41.210938 40.921875 -41.578125 C 39.234375 -42.679688 37.125 -43.671875 34.59375 -44.546875 C 32.0625 -45.429688 29.441406 -45.875 26.734375 -45.875 C 23.429688 -45.875 20.9375 -45.191406 19.25 -43.828125 C 17.5625 -42.472656 16.71875 -40.734375 16.71875 -38.609375 C 16.71875 -36.484375 17.453125 -34.851562 18.921875 -33.71875 C 20.390625 -32.582031 23.101562 -31.828125 27.0625 -31.453125 L 32.5625 -30.90625 C 37.914062 -30.394531 41.894531 -28.851562 44.5 -26.28125 C 47.101562 -23.71875 48.40625 -20.3125 48.40625 -16.0625 C 48.40625 -10.851562 46.585938 -6.671875 42.953125 -3.515625 C 39.328125 -0.367188 34.066406 1.203125 27.171875 1.203125 Z M 27.171875 1.203125 "/></g></g></g><g fill="#1b3631" fill-opacity="1"><g transform="translate(308.241717, 219.453559)"><g><path d="M 27.171875 1.203125 C 24.597656 1.203125 22.210938 0.960938 20.015625 0.484375 C 17.816406 0.015625 15.816406 -0.601562 14.015625 -1.375 C 12.222656 -2.144531 10.613281 -2.988281 9.1875 -3.90625 C 7.757812 -4.820312 6.492188 -5.753906 5.390625 -6.703125 C 4.878906 -7.222656 4.878906 -7.738281 5.390625 -8.25 L 9.90625 -13.09375 C 10.414062 -13.601562 10.925781 -13.601562 11.4375 -13.09375 C 13.414062 -11.40625 15.816406 -9.972656 18.640625 -8.796875 C 21.460938 -7.628906 24.488281 -7.046875 27.71875 -7.046875 C 31.601562 -7.046875 34.5 -7.796875 36.40625 -9.296875 C 38.3125 -10.796875 39.265625 -12.71875 39.265625 -15.0625 C 39.265625 -17.125 38.585938 -18.757812 37.234375 -19.96875 C 35.878906 -21.175781 33.148438 -22 29.046875 -22.4375 L 23.4375 -22.984375 C 18.226562 -23.578125 14.300781 -25.117188 11.65625 -27.609375 C 9.019531 -30.097656 7.703125 -33.507812 7.703125 -37.84375 C 7.703125 -42.90625 9.40625 -46.847656 12.8125 -49.671875 C 16.226562 -52.492188 21.050781 -53.90625 27.28125 -53.90625 C 31.164062 -53.90625 34.703125 -53.351562 37.890625 -52.25 C 41.085938 -51.144531 43.785156 -49.75 45.984375 -48.0625 C 46.566406 -47.695312 46.640625 -47.1875 46.203125 -46.53125 L 42.453125 -41.796875 C 42.015625 -41.285156 41.503906 -41.210938 40.921875 -41.578125 C 39.234375 -42.679688 37.125 -43.671875 34.59375 -44.546875 C 32.0625 -45.429688 29.441406 -45.875 26.734375 -45.875 C 23.429688 -45.875 20.9375 -45.191406 19.25 -43.828125 C 17.5625 -42.472656 16.71875 -40.734375 16.71875 -38.609375 C 16.71875 -36.484375 17.453125 -34.851562 18.921875 -33.71875 C 20.390625 -32.582031 23.101562 -31.828125 27.0625 -31.453125 L 32.5625 -30.90625 C 37.914062 -30.394531 41.894531 -28.851562 44.5 -26.28125 C 47.101562 -23.71875 48.40625 -20.3125 48.40625 -16.0625 C 48.40625 -10.851562 46.585938 -6.671875 42.953125 -3.515625 C 39.328125 -0.367188 34.066406 1.203125 27.171875 1.203125 Z M 27.171875 1.203125 "/></g></g></g><g fill="#1b3631" fill-opacity="1"><g transform="translate(73.077355, 243.374984)"><g><path d="M 46.5 -127.625 L 57.921875 -127.625 L 11.78125 2.375 L 0.4375 2.375 Z M 46.5 -127.625 "/></g></g></g></svg>