<svg xmlns="http://www.w3.org/2000/svg" xmlns:xlink="http://www.w3.org/1999/xlink" width="500" zoomAndPan="magnify" viewBox="0 0 375 374.999991" height="500" preserveAspectRatio="xMidYMid meet" version="1.0"><defs><g/></defs><g fill="#1b3631" fill-opacity="1"><g transform="translate(77.500113, 203.999987)"><g><path d="M 17.078125 -40.1875 L 16.9375 -40.1875 L 9.03125 -34.65625 C 8.519531 -34.320312 8.265625 -34.457031 8.265625 -35.0625 L 8.265625 -40.25 C 8.265625 -40.625 8.425781 -40.953125 8.75 -41.234375 L 16.9375 -47.1875 C 17.269531 -47.457031 17.644531 -47.59375 18.0625 -47.59375 L 22.265625 -47.59375 C 22.722656 -47.59375 22.953125 -47.363281 22.953125 -46.90625 L 22.953125 -0.703125 C 22.953125 -0.234375 22.722656 0 22.265625 0 L 17.78125 0 C 17.3125 0 17.078125 -0.234375 17.078125 -0.703125 Z M 17.078125 -40.1875 "/></g></g></g><g fill="#1b3631" fill-opacity="1"><g transform="translate(150.288511, 203.999987)"><g><path d="M 23.171875 -24.984375 C 26.109375 -24.984375 28.394531 -25.726562 30.03125 -27.21875 C 31.664062 -28.71875 32.484375 -30.773438 32.484375 -33.390625 C 32.484375 -36.003906 31.664062 -38.054688 30.03125 -39.546875 C 28.394531 -41.046875 26.109375 -41.796875 23.171875 -41.796875 L 12.53125 -41.796875 C 12.25 -41.796875 12.109375 -41.65625 12.109375 -41.375 L 12.109375 -25.40625 C 12.109375 -25.125 12.25 -24.984375 12.53125 -24.984375 Z M 6.578125 0 C 6.109375 0 5.875 -0.234375 5.875 -0.703125 L 5.875 -46.90625 C 5.875 -47.363281 6.109375 -47.59375 6.578125 -47.59375 L 23.515625 -47.59375 C 25.804688 -47.59375 27.882812 -47.253906 29.75 -46.578125 C 31.613281 -45.898438 33.195312 -44.941406 34.5 -43.703125 C 35.8125 -42.472656 36.828125 -40.984375 37.546875 -39.234375 C 38.273438 -37.484375 38.640625 -35.535156 38.640625 -33.390625 C 38.640625 -31.242188 38.273438 -29.296875 37.546875 -27.546875 C 36.828125 -25.796875 35.8125 -24.300781 34.5 -23.0625 C 33.195312 -21.820312 31.613281 -20.863281 29.75 -20.1875 C 27.882812 -19.519531 25.804688 -19.1875 23.515625 -19.1875 L 12.53125 -19.1875 C 12.25 -19.1875 12.109375 -19.046875 12.109375 -18.765625 L 12.109375 -0.703125 C 12.109375 -0.234375 11.875 0 11.40625 0 Z M 6.578125 0 "/></g></g></g><g fill="#1b3631" fill-opacity="1"><g transform="translate(191.726248, 203.999987)"><g><path d="M 16.734375 -4.265625 C 19.390625 -4.265625 21.460938 -4.835938 22.953125 -5.984375 C 24.453125 -7.128906 25.203125 -8.75 25.203125 -10.84375 L 25.203125 -14.5625 C 25.203125 -14.84375 25.0625 -14.984375 24.78125 -14.984375 L 18.0625 -14.984375 C 15.125 -14.984375 13 -14.550781 11.6875 -13.6875 C 10.382812 -12.820312 9.734375 -11.429688 9.734375 -9.515625 C 9.734375 -7.796875 10.335938 -6.488281 11.546875 -5.59375 C 12.765625 -4.707031 14.492188 -4.265625 16.734375 -4.265625 Z M 26.046875 0 C 25.578125 0 25.34375 -0.234375 25.34375 -0.703125 L 25.34375 -3.640625 L 25.265625 -3.640625 C 24.472656 -2.378906 23.257812 -1.328125 21.625 -0.484375 C 20 0.347656 17.898438 0.765625 15.328125 0.765625 C 13.742188 0.765625 12.257812 0.554688 10.875 0.140625 C 9.5 -0.273438 8.3125 -0.90625 7.3125 -1.75 C 6.3125 -2.59375 5.519531 -3.644531 4.9375 -4.90625 C 4.351562 -6.164062 4.0625 -7.632812 4.0625 -9.3125 C 4.0625 -12.851562 5.210938 -15.460938 7.515625 -17.140625 C 9.828125 -18.828125 13.039062 -19.671875 17.15625 -19.671875 L 24.78125 -19.671875 C 25.0625 -19.671875 25.203125 -19.8125 25.203125 -20.09375 L 25.203125 -22.546875 C 25.203125 -24.878906 24.640625 -26.554688 23.515625 -27.578125 C 22.398438 -28.609375 20.28125 -29.125 17.15625 -29.125 C 15.238281 -29.125 13.648438 -28.898438 12.390625 -28.453125 C 11.128906 -28.015625 10.007812 -27.441406 9.03125 -26.734375 C 8.613281 -26.410156 8.285156 -26.4375 8.046875 -26.8125 L 6.15625 -30.03125 C 5.96875 -30.40625 6.015625 -30.734375 6.296875 -31.015625 C 7.554688 -31.992188 9.144531 -32.785156 11.0625 -33.390625 C 12.976562 -33.992188 15.191406 -34.296875 17.703125 -34.296875 C 22.460938 -34.296875 25.847656 -33.421875 27.859375 -31.671875 C 29.867188 -29.921875 30.875 -26.992188 30.875 -22.890625 L 30.875 -0.703125 C 30.875 -0.234375 30.640625 0 30.171875 0 Z M 26.046875 0 "/></g></g></g><g fill="#1b3631" fill-opacity="1"><g transform="translate(228.054268, 203.999987)"><g><path d="M 17.296875 0.765625 C 15.660156 0.765625 14.140625 0.613281 12.734375 0.3125 C 11.335938 0.0078125 10.066406 -0.382812 8.921875 -0.875 C 7.773438 -1.363281 6.75 -1.898438 5.84375 -2.484375 C 4.9375 -3.066406 4.132812 -3.660156 3.4375 -4.265625 C 3.101562 -4.597656 3.101562 -4.925781 3.4375 -5.25 L 6.296875 -8.328125 C 6.628906 -8.648438 6.957031 -8.648438 7.28125 -8.328125 C 8.539062 -7.253906 10.066406 -6.34375 11.859375 -5.59375 C 13.660156 -4.851562 15.585938 -4.484375 17.640625 -4.484375 C 20.109375 -4.484375 21.945312 -4.957031 23.15625 -5.90625 C 24.375 -6.863281 24.984375 -8.09375 24.984375 -9.59375 C 24.984375 -10.894531 24.550781 -11.929688 23.6875 -12.703125 C 22.832031 -13.472656 21.097656 -14 18.484375 -14.28125 L 14.90625 -14.625 C 11.59375 -15 9.097656 -15.976562 7.421875 -17.5625 C 5.742188 -19.15625 4.90625 -21.328125 4.90625 -24.078125 C 4.90625 -27.296875 5.988281 -29.800781 8.15625 -31.59375 C 10.320312 -33.394531 13.390625 -34.296875 17.359375 -34.296875 C 19.828125 -34.296875 22.078125 -33.945312 24.109375 -33.25 C 26.140625 -32.550781 27.859375 -31.664062 29.265625 -30.59375 C 29.628906 -30.351562 29.675781 -30.023438 29.40625 -29.609375 L 27.015625 -26.59375 C 26.734375 -26.269531 26.410156 -26.222656 26.046875 -26.453125 C 24.972656 -27.160156 23.628906 -27.789062 22.015625 -28.34375 C 20.398438 -28.90625 18.734375 -29.1875 17.015625 -29.1875 C 14.910156 -29.1875 13.320312 -28.753906 12.25 -27.890625 C 11.175781 -27.023438 10.640625 -25.914062 10.640625 -24.5625 C 10.640625 -23.21875 11.101562 -22.179688 12.03125 -21.453125 C 12.96875 -20.734375 14.695312 -20.253906 17.21875 -20.015625 L 20.71875 -19.671875 C 24.125 -19.347656 26.65625 -18.367188 28.3125 -16.734375 C 29.96875 -15.097656 30.796875 -12.925781 30.796875 -10.21875 C 30.796875 -6.90625 29.640625 -4.242188 27.328125 -2.234375 C 25.023438 -0.234375 21.679688 0.765625 17.296875 0.765625 Z M 17.296875 0.765625 "/></g></g></g><g fill="#1b3631" fill-opacity="1"><g transform="translate(262.352392, 203.999987)"><g><path d="M 17.296875 0.765625 C 15.660156 0.765625 14.140625 0.613281 12.734375 0.3125 C 11.335938 0.0078125 10.066406 -0.382812 8.921875 -0.875 C 7.773438 -1.363281 6.75 -1.898438 5.84375 -2.484375 C 4.9375 -3.066406 4.132812 -3.660156 3.4375 -4.265625 C 3.101562 -4.597656 3.101562 -4.925781 3.4375 -5.25 L 6.296875 -8.328125 C 6.628906 -8.648438 6.957031 -8.648438 7.28125 -8.328125 C 8.539062 -7.253906 10.066406 -6.34375 11.859375 -5.59375 C 13.660156 -4.851562 15.585938 -4.484375 17.640625 -4.484375 C 20.109375 -4.484375 21.945312 -4.957031 23.15625 -5.90625 C 24.375 -6.863281 24.984375 -8.09375 24.984375 -9.59375 C 24.984375 -10.894531 24.550781 -11.929688 23.6875 -12.703125 C 22.832031 -13.472656 21.097656 -14 18.484375 -14.28125 L 14.90625 -14.625 C 11.59375 -15 9.097656 -15.976562 7.421875 -17.5625 C 5.742188 -19.15625 4.90625 -21.328125 4.90625 -24.078125 C 4.90625 -27.296875 5.988281 -29.800781 8.15625 -31.59375 C 10.320312 -33.394531 13.390625 -34.296875 17.359375 -34.296875 C 19.828125 -34.296875 22.078125 -33.945312 24.109375 -33.25 C 26.140625 -32.550781 27.859375 -31.664062 29.265625 -30.59375 C 29.628906 -30.351562 29.675781 -30.023438 29.40625 -29.609375 L 27.015625 -26.59375 C 26.734375 -26.269531 26.410156 -26.222656 26.046875 -26.453125 C 24.972656 -27.160156 23.628906 -27.789062 22.015625 -28.34375 C 20.398438 -28.90625 18.734375 -29.1875 17.015625 -29.1875 C 14.910156 -29.1875 13.320312 -28.753906 12.25 -27.890625 C 11.175781 -27.023438 10.640625 -25.914062 10.640625 -24.5625 C 10.640625 -23.21875 11.101562 -22.179688 12.03125 -21.453125 C 12.96875 -20.734375 14.695312 -20.253906 17.21875 -20.015625 L 20.71875 -19.671875 C 24.125 -19.347656 26.65625 -18.367188 28.3125 -16.734375 C 29.96875 -15.097656 30.796875 -12.925781 30.796875 -10.21875 C 30.796875 -6.90625 29.640625 -4.242188 27.328125 -2.234375 C 25.023438 -0.234375 21.679688 0.765625 17.296875 0.765625 Z M 17.296875 0.765625 "/></g></g></g><g fill="#1b3631" fill-opacity="1"><g transform="translate(106.854571, 230.999985)"><g><path d="M 36.15625 -99.265625 L 45.046875 -99.265625 L 9.15625 1.84375 L 0.34375 1.84375 Z M 36.15625 -99.265625 "/></g></g></g></svg>