<?xml version="1.0" encoding="iso-8859-1"?>
<!-- Uploaded to: SVG Repo, www.svgrepo.com, Generator: SVG Repo Mixer Tools -->
<svg fill="#000000" height="800px" width="800px" version="1.1" id="Layer_1" xmlns="http://www.w3.org/2000/svg" xmlns:xlink="http://www.w3.org/1999/xlink" 
	 viewBox="0 0 511.982 511.982" xml:space="preserve">
<g>
	<g>
		<g>
			<path d="M341.332,63.98c-35.285,0-64,28.715-64,64s28.715,64,64,64s64-28.715,64-64S376.617,63.98,341.332,63.98z"/>
			<path d="M422.051,28.632C391.971,4.184,352.696-5.245,314.061,2.819c-50.795,10.56-90.581,52.267-98.987,103.744
				c-0.405,2.56-0.597,5.141-0.853,7.723c-22.272-8.043-46.699-9.835-70.827-4.8C92.6,120.046,52.813,161.752,44.408,213.23
				c-4.587,28.139-0.128,56.107,12.928,80.917l10.88,20.416c13.909,26.005,27.051,50.581,37.888,76.608l44.864,107.691
				c3.328,7.936,11.093,13.12,19.691,13.12c8.619,0,16.384-5.184,19.691-13.12l48.597-116.693
				c10.56-25.259,23.637-49.045,37.483-74.24l5.76-10.453l39.445,94.72c3.328,7.936,11.093,13.12,19.691,13.12
				c8.619,0,16.384-5.184,19.691-13.12l48.619-116.672c10.539-25.301,23.616-49.067,37.483-74.261l6.592-12.011
				c10.219-18.688,15.616-39.872,15.616-61.269C469.325,89.283,452.109,53.08,422.051,28.632z M170.659,298.648
				c-35.285,0-64-28.715-64-64s28.715-64,64-64c35.307,0,64,28.715,64,64S205.965,298.648,170.659,298.648z M416.291,168.771
				l-6.549,11.925c-13.803,25.067-28.075,50.987-39.488,78.4l-28.928,69.419l-25.152-60.416
				c-5.824-13.931-12.224-27.179-17.6-37.867c-0.064-1.941-0.32-3.84-0.469-5.76c-0.149-1.877-0.256-3.755-0.469-5.611
				c-0.363-2.859-0.896-5.675-1.429-8.491c-0.32-1.6-0.533-3.243-0.896-4.843c-0.939-3.968-2.048-7.872-3.349-11.712
				c-0.448-1.365-1.003-2.688-1.493-4.011c-1.173-3.136-2.389-6.272-3.819-9.301c-0.811-1.771-1.792-3.456-2.709-5.184
				c-1.152-2.197-2.283-4.395-3.563-6.528c-1.109-1.856-2.347-3.627-3.563-5.419c-1.259-1.899-2.539-3.776-3.904-5.589
				c-1.365-1.813-2.837-3.563-4.288-5.312c-1.408-1.685-2.837-3.328-4.352-4.928c-1.6-1.728-3.264-3.413-4.971-5.056
				c-0.725-0.683-1.365-1.451-2.112-2.133c-1.429-9.109-1.408-18.133,0.021-26.901c5.483-33.664,32.427-61.973,65.557-68.864
				c26.304-5.461,52.053,0.619,72.363,17.131c20.032,16.32,31.531,40.448,31.531,66.261
				C426.659,142.254,423.075,156.355,416.291,168.771z"/>
			<path d="M170.665,213.313c-11.776,0-21.333,9.579-21.333,21.333c0,11.755,9.557,21.333,21.333,21.333s21.333-9.579,21.333-21.333
				C191.998,222.892,182.441,213.313,170.665,213.313z"/>
		</g>
	</g>
</g>
</svg>