<!DOCTYPE svg PUBLIC "-//W3C//DTD SVG 1.1//EN" "http://www.w3.org/Graphics/SVG/1.1/DTD/svg11.dtd">
<!-- Uploaded to: SVG Repo, www.svgrepo.com, Transformed by: SVG Repo Mixer Tools -->
<svg width="256px" height="256px" viewBox="0 0 24.00 24.00" xmlns="http://www.w3.org/2000/svg" fill="none" transform="matrix(1, 0, 0, 1, 0, 0)rotate(0)" stroke="#000000" stroke-width="0.00024000000000000003">
<g id="SVGRepo_bgCarrier" stroke-width="0"/>
<g id="SVGRepo_tracerCarrier" stroke-linecap="round" stroke-linejoin="round" stroke="#CCCCCC" stroke-width="0.048"/>
<g id="SVGRepo_iconCarrier">
<path fill="#000000" fill-rule="evenodd" d="M2 8a3 3 0 0 1 3-3h10a3 3 0 0 1 3 3v1.586l2.293-2.293A1 1 0 0 1 22 8v8a1 1 0 0 1-1.707.707L18 14.414V16a3 3 0 0 1-3 3H5a3 3 0 0 1-3-3V8zm9 1a1 1 0 1 0-2 0v2H7a1 1 0 1 0 0 2h2v2a1 1 0 1 0 2 0v-2h2a1 1 0 1 0 0-2h-2V9z" clip-rule="evenodd"/>
</g>
</svg>